<svg id="Camada_1" data-name="Camada 1" xmlns="http://www.w3.org/2000/svg" viewBox="0 0 1414.08 960"><defs><style>.cls-1{fill:#0b1e3a;opacity:0.07;}</style></defs><path class="cls-1" d="M360.52,156.49c90.12-12.58,163.64-88,196.84-173.55A200.42,200.42,0,0,0,566-53H30.65C6-53-14.08-31.77-14.08-5.56v237C72.77,128.15,238.2,172.14,360.52,156.49Z" transform="translate(14.08 53)"/><path class="cls-1" d="M1386.08-39.95a43.23,43.23,0,0,0-30.81-13h-154c-3.56,1.77-7.12,3.67-10.66,5.76-64,35.21-118.57,83-156.52,148.39-52.18,88-64,186.13-99.61,276.67-33.2,83-104.35,161-189.72,166C545.5,558.92,315.46,551.37,185,745,147,798.86,122.73,862.92,79.57,907h1275.7c24.69,0,44.73-21.23,44.73-47.44V-5.56A48.7,48.7,0,0,0,1386.08-39.95Z" transform="translate(14.08 53)"/></svg>