<svg xmlns="http://www.w3.org/2000/svg" viewBox="0 0 718.36 158.63"><defs><style>.cls-1{fill:#5e749a;}</style></defs><g id="Camada_2" data-name="Camada 2"><g id="Camada_1-2" data-name="Camada 1"><path class="cls-1" d="M709.79,78a27.78,27.78,0,0,0-21.62-9.74h-67.1a27.63,27.63,0,0,0-17.55,5.92,15.06,15.06,0,0,0-11.94-5.92l-.7,0v90h15.6V99.47a15,15,0,0,1,4.22-10.73,13.72,13.72,0,0,1,10.37-4.4h25.72v74h15.67v-74h25.71a13.72,13.72,0,0,1,10.36,4.39,15,15,0,0,1,4.24,10.74v58.86h15.59V100.8A33,33,0,0,0,709.79,78"/><path class="cls-1" d="M194.05,68.5h-47.3a41.4,41.4,0,0,0-41.27,41.28v47.3a1.59,1.59,0,0,0,1.55,1.55h47.3a41.4,41.4,0,0,0,41.27-41.28V70.05a1.6,1.6,0,0,0-1.55-1.55"/><path class="cls-1" d="M48.79,68.5H1.54A1.59,1.59,0,0,0,0,70.05v47.3a41.4,41.4,0,0,0,41.26,41.28H88.52a1.56,1.56,0,0,0,1.54-1.55v-47.3A41.4,41.4,0,0,0,48.79,68.5"/><path class="cls-1" d="M128.57,30.13,98.91.46a1.58,1.58,0,0,0-2.22,0L67,30.13A15.56,15.56,0,0,0,67,52L96.69,81.66a1.58,1.58,0,0,0,2.22,0L128.57,52a15.54,15.54,0,0,0,0-21.86"/><path class="cls-1" d="M338.43,110.23c-4.63-5-10.66-7.45-17.9-7.45H302.28l-27.68,0c0,.23,0,.46,0,.7a15.12,15.12,0,0,0,15.2,15.08h1.37l27.88,0a9.53,9.53,0,0,1,7.5,3.14c1.89,2.18,2.65,5.3,2.32,9.26-.7,11.19-6.19,12.49-10.27,12.49l-46.42-.91a12.37,12.37,0,0,1-9.85-4.49,16.29,16.29,0,0,1-3.77-10.95V100.33a17.63,17.63,0,0,1,4-11.55A12,12,0,0,1,272.42,84h44.9l1,0c.83,0,1.27,0,1.88,0a15.22,15.22,0,0,0,15.21-15.21c0-.23,0-.46,0-.7H305l-.93.13H272.42c-8.86,0-16.09,3-21.48,9-5.38,5.8-8.11,13.27-8.11,22.19v28.24c0,8.86,2.69,16.26,8,22s12.4,8.72,21.31,8.72h48.51c11.31,0,24.81-4.83,24.81-27.84,0-8.62-2.3-15.26-7-20.28"/><path class="cls-1" d="M430.69,68.12H375C375,83,390.15,84,390.15,84h39.26c14.37,0,15.27,14.31,15.27,14.31v.92H392.83s-31.64-1.83-31.64,29.08,26.77,30,26.77,30h22.71l1.05,0c.82,0,1.26,0,1.87,0a15.22,15.22,0,0,0,15.21-15.2c0-.24,0-.47,0-.7H389.17s-11.74-1.14-12.34-13.16,11.05-14.27,16-14.27h51.85v43.48l15.57.08s0-28.23,0-59.11-29.6-31.4-29.6-31.4"/><path class="cls-1" d="M545.54,68.12H489.8C489.8,83,505,84,505,84h39.25c14.37,0,15.28,14.31,15.28,14.31v.92H507.68S476,97.39,476,128.3s26.79,30,26.79,30h22.7l1,0c.83,0,1.28,0,1.88,0a15.23,15.23,0,0,0,15.21-15.2c0-.24,0-.47,0-.7H504s-11.73-1.14-12.33-13.16,11-14.27,16-14.27h51.85v43.48l15.57.08s0-28.23,0-59.11-29.59-31.4-29.59-31.4"/></g></g></svg>